{"title":"Control (Pilot) 2012 DVDRip 480p Mp4 AC3","uid":7765091,"size":262588216,"categoryP":"video","categoryS":"tv_shows","magnet":"?xt=urn:btih:ec263628001825cce79de3cfe5ba1b0c2a284200&amp;dn=Control+%28Pilot%29+2012+DVDRip+480p+Mp4+AC3&amp;tr=udp%3A%2F%2Ftracker.openbittorrent.com%3A80&amp;tr=udp%3A%2F%2Fopen.demonii.com%3A1337&amp;tr=udp%3A%2F%2Ftracker.coppersurfer.tk%3A6969&amp;tr=udp%3A%2F%2Fexodus.desync.com%3A6969","seeders":0,"leechers":0,"uploader":"rndmfrd222","files":12,"time":1351352272,"description":"      *******************************************************************************       \n                      Control (Pilot) 2012 DVDRip 480p-Mp4-H264-AVC-AC3\n      *******************************************************************************\n\n                                    Release Notes\n      -------------------------------------------------------------------------------\n        Release Date...: 2012\n        Genre..........: Sci-Fi, Drama\n        Source.........: DVD\n        Language.......: English\n        Screenshots....: Yes\n        Ripper/Encoder.: Handbrake 0.9.8\n        Ripped by......: rndmfrd222\n        Uploaded by....: rndmfrd222\n        \n        General\n\n        Format                           : MPEG-4\n        Format profile                   : Base Media / Version 2\n        Codec ID                         : mp42\n        File size                        : 246 MiB\n        Duration                         : 20mn 19s\n        Overall bit rate mode            : Variable\n        Overall bit rate                 : 1 695 Kbps\n\n        Video\n\n        ID                               : 1\n        Format                           : AVC\n        Format/Info                      : Advanced Video Codec\n        Format profile                   : &lt;a class=&quot;__cf_email__&quot; href=&quot;/cdn-cgi/l/email-protection&quot; data-cfemail=&quot;c489a5adaa8488f7eaf4&quot;&gt;[email&amp;#160;protected]&lt;/a&gt;&lt;script cf-hash='f9e31' type=&quot;text/javascript&quot;&gt;\n/* &lt;![CDATA[ */!function(){try{var t=&quot;currentScript&quot;in document?document.currentScript:function(){for(var t=document.getElementsByTagName(&quot;script&quot;),e=t.length;e--;)if(t[e].getAttribute(&quot;cf-hash&quot;))return t[e]}();if(t&amp;&amp;t.previousSibling){var e,r,n,i,c=t.previousSibling,a=c.getAttribute(&quot;data-cfemail&quot;);if(a){for(e=&quot;&quot;,r=parseInt(a.substr(0,2),16),n=2;a.length-n;n+=2)i=parseInt(a.substr(n,2),16)^r,e+=String.fromCharCode(i);e=document.createTextNode(e),c.parentNode.replaceChild(e,c)}}}catch(u){}}();/* ]]&gt; */&lt;/script&gt;\n        Format settings, CABAC           : Yes\n        Format settings, ReFrames        : 4 frames\n        Codec ID                         : avc1\n        Codec ID/Info                    : Advanced Video Coding\n        Duration                         : 20mn 19s\n        Bit rate mode                    : Variable\n        Bit rate                         : 1 500 Kbps\n        Width                            : 704 pixels\n        Height                           : 480 pixels\n        Display aspect ratio             : 16:9\n        Frame rate mode                  : Variable\n        Frame rate                       : 23.976 fps\n        Minimum frame rate               : 8.563 fps\n        Maximum frame rate               : 29.970 fps\n        Standard                         : NTSC\n        Color space                      : YUV\n        Chroma subsampling               : 4:2:0\n        Bit depth                        : 8 bits\n        Scan type                        : Progressive\n        Bits/(Pixel*Frame)               : 0.185\n        Stream size                      : 218 MiB (88%)\n        Writing library                  : x264 core 120\n\n        Audio\n\n        ID                               : 2\n        Format                           : AC-3\n        Format/Info                      : Audio Coding 3\n        Mode extension                   : CM (complete main)\n        Codec ID                         : ac-3\n        Duration                         : 20mn 19s\n        Bit rate mode                    : Constant\n        Bit rate                         : 192 Kbps\n        Channel(s)                       : 2 channels\n        Channel positions                : Front: L R\n        Sampling rate                    : 48.0 KHz\n        Bit depth                        : 16 bits\n        Compression mode                 : Lossy\n        Stream size                      : 27.9 MiB (11%)\n        Language                         : English\n\n        Enjoy :)\n","torrent":{"xt":"urn:btih:ec263628001825cce79de3cfe5ba1b0c2a284200","amp;dn":"Control+%28Pilot%29+2012+DVDRip+480p+Mp4+AC3","amp;tr":["udp%3A%2F%2Ftracker.openbittorrent.com%3A80","udp%3A%2F%2Fopen.demonii.com%3A1337","udp%3A%2F%2Ftracker.coppersurfer.tk%3A6969","udp%3A%2F%2Fexodus.desync.com%3A6969"],"infoHash":"ec263628001825cce79de3cfe5ba1b0c2a284200","infoHashBuffer":{"type":"Buffer","data":[236,38,54,40,0,24,37,204,231,157,227,207,229,186,27,12,42,40,66,0]},"announce":[],"urlList":[]}}